<svg width="80" height="78" viewBox="0 0 80 78" fill="none" xmlns="http://www.w3.org/2000/svg">
<path d="M0 72.4611L14.6941 77.2473L19.9073 71.9484L10.0485 61.9277L0 72.4611ZM18.3249 36.586C17.5508 37.2805 16.9895 38.1867 16.7082 39.1965C16.4268 40.2063 16.4372 41.277 16.7382 42.281L18.6573 48.6829L11.1676 56.2971L25.319 70.6809L32.7984 63.0787L39.0837 65.0338C41.1028 65.6616 43.2969 65.0323 44.694 63.4225L49.9219 57.1984L24.4308 31.2887L18.3249 36.586ZM77.635 12.5657L68.3409 3.11896C65.3277 0.0562477 60.491 -0.0977097 57.2939 2.76769L28.022 28.1722L52.988 53.5498L77.9806 23.7956C80.8012 20.5461 80.6497 15.6299 77.635 12.5657Z" fill="#A51B1B"/>
</svg>
