<svg width="81" height="78" viewBox="0 0 81 78" fill="none" xmlns="http://www.w3.org/2000/svg">
<path d="M79.2969 60.0203L61 42.5169C57.3906 39.0641 52 38.3915 47.6562 40.4392L31 24.5054V15.2231L11 0.873657L1 10.4399L16 29.5725H25.7031L42.3594 45.5064C40.2344 49.6618 40.9219 54.8186 44.5312 58.2714L62.8281 75.7747C65.1094 77.9571 68.7969 77.9571 71.0625 75.7747L79.2969 67.8975C81.5625 65.7152 81.5625 62.1876 79.2969 60.0203ZM52.8281 34.5052C57.25 34.5052 61.4062 36.1494 64.5312 39.1388L67.5625 42.0386C70.0312 41.0072 72.375 39.5723 74.4062 37.6291C80.2031 32.0837 82.1719 24.2812 80.3281 17.1961C79.9844 15.8509 78.2188 15.3875 77.1875 16.374L65.5625 27.4949L54.9531 25.8058L53.1875 15.6566L64.8125 4.53575C65.8438 3.54923 65.3438 1.86018 63.9219 1.51639C56.5156 -0.232445 48.3594 1.65092 42.5781 7.18143C38.125 11.4414 36.0312 17.0616 36.1406 22.6669L48.9688 34.9386C50.2344 34.6546 51.5469 34.5052 52.8281 34.5052ZM36.5938 46.762L27.7344 38.2868L3.92188 61.0815C0.015625 64.8183 0.015625 70.872 3.92188 74.6088C7.82812 78.3457 14.1562 78.3457 18.0625 74.6088L37.375 56.1339C36.1875 53.1594 35.8281 49.9159 36.5938 46.762ZM11 71.4251C8.9375 71.4251 7.25 69.8108 7.25 67.8377C7.25 65.8497 8.92188 64.2503 11 64.2503C13.0781 64.2503 14.75 65.8497 14.75 67.8377C14.75 69.8108 13.0781 71.4251 11 71.4251Z" fill="#40B02E"/>
</svg>
