<svg width="80" height="78" viewBox="0 0 80 78" fill="none" xmlns="http://www.w3.org/2000/svg">
<path d="M46.25 58.2699H33.75C31.6719 58.2699 30 56.6705 30 54.6825V29.571H16.2969C13.5156 29.571 12.125 26.3573 14.0938 24.4739L37.8594 1.72409C39.0312 0.603038 40.9531 0.603038 42.125 1.72409L65.9062 24.4739C67.875 26.3573 66.4844 29.571 63.7031 29.571H50V54.6825C50 56.6705 48.3281 58.2699 46.25 58.2699ZM80 57.0741V73.8151C80 75.8031 78.3281 77.4024 76.25 77.4024H3.75C1.67188 77.4024 0 75.8031 0 73.8151V57.0741C0 55.0861 1.67188 53.4867 3.75 53.4867H25V54.6825C25 59.3012 28.9219 63.053 33.75 63.053H46.25C51.0781 63.053 55 59.3012 55 54.6825V53.4867H76.25C78.3281 53.4867 80 55.0861 80 57.0741ZM60.625 70.2277C60.625 68.5835 59.2188 67.2383 57.5 67.2383C55.7812 67.2383 54.375 68.5835 54.375 70.2277C54.375 71.8719 55.7812 73.2172 57.5 73.2172C59.2188 73.2172 60.625 71.8719 60.625 70.2277ZM70.625 70.2277C70.625 68.5835 69.2188 67.2383 67.5 67.2383C65.7812 67.2383 64.375 68.5835 64.375 70.2277C64.375 71.8719 65.7812 73.2172 67.5 73.2172C69.2188 73.2172 70.625 71.8719 70.625 70.2277Z" fill="#3069D9"/>
</svg>
