<svg width="80" height="80" viewBox="0 0 80 80" fill="none" xmlns="http://www.w3.org/2000/svg">
<path d="M76.3125 58.3281C76.6375 56.125 76.6375 53.875 76.3125 51.6719L79.5375 49.3438C79.9125 49.0781 80.075 48.5312 79.95 48.0156C79.1125 44.6406 77.675 41.5781 75.8 39.0469C75.5125 38.6562 75.05 38.5625 74.675 38.8281L71.45 41.1562C70.0875 39.7031 68.525 38.5781 66.8375 37.8281V33.1719C66.8375 32.6406 66.5375 32.1719 66.125 32.0625C63.3375 31.2812 60.5 31.3125 57.85 32.0625C57.4375 32.1719 57.1375 32.6406 57.1375 33.1719V37.8281C55.45 38.5781 53.8875 39.7031 52.525 41.1562L49.3 38.8281C48.9375 38.5625 48.4625 38.6562 48.175 39.0469C46.3 41.5781 44.8625 44.6406 44.025 48.0156C43.9 48.5312 44.075 49.0781 44.4375 49.3438L47.6625 51.6719C47.3375 53.875 47.3375 56.125 47.6625 58.3281L44.4375 60.6562C44.0625 60.9219 43.9 61.4688 44.025 61.9844C44.8625 65.3594 46.3 68.4062 48.175 70.9531C48.4625 71.3438 48.925 71.4375 49.3 71.1719L52.525 68.8438C53.8875 70.2969 55.45 71.4219 57.1375 72.1719V76.8281C57.1375 77.3594 57.4375 77.8281 57.85 77.9375C60.6375 78.7188 63.475 78.6875 66.125 77.9375C66.5375 77.8281 66.8375 77.3594 66.8375 76.8281V72.1719C68.525 71.4219 70.0875 70.2969 71.45 68.8438L74.675 71.1719C75.0375 71.4375 75.5125 71.3438 75.8 70.9531C77.675 68.4219 79.1125 65.3594 79.95 61.9844C80.075 61.4688 79.9 60.9219 79.5375 60.6562L76.3125 58.3281ZM62 62.5781C58.65 62.5781 55.9375 59.1719 55.9375 55C55.9375 50.8281 58.6625 47.4219 62 47.4219C65.3375 47.4219 68.0625 50.8281 68.0625 55C68.0625 59.1719 65.35 62.5781 62 62.5781ZM28 40C36.8375 40 44 31.0469 44 20C44 8.95312 36.8375 0 28 0C19.1625 0 12 8.95312 12 20C12 31.0469 19.1625 40 28 40ZM53.15 75.3906C52.8625 75.2031 52.575 74.9844 52.3 74.7812L51.3125 75.5C50.5625 76.0312 49.7125 76.3281 48.8625 76.3281C47.5 76.3281 46.1875 75.6094 45.25 74.3594C42.9625 71.2656 41.2125 67.5 40.225 63.4844C39.5375 60.7187 40.4625 57.7969 42.4625 56.3438L43.45 55.625C43.4375 55.2188 43.4375 54.8125 43.45 54.4062L42.4625 53.6875C40.4625 52.25 39.5375 49.3125 40.225 46.5469C40.3375 46.0938 40.5 45.6406 40.625 45.1875C40.15 45.1406 39.6875 45 39.2 45H37.1125C34.3375 46.5938 31.25 47.5 28 47.5C24.75 47.5 21.675 46.5938 18.8875 45H16.8C7.525 45 0 54.4062 0 66V72.5C0 76.6406 2.6875 80 6 80H50C51.2625 80 52.4375 79.5 53.4 78.6719C53.25 78.0781 53.15 77.4688 53.15 76.8281V75.3906Z" fill="#BB17BE"/>
</svg>
