<svg width="80" height="78" viewBox="0 0 80 78" fill="none" xmlns="http://www.w3.org/2000/svg">
<path d="M55.875 52.2687L60.3194 47.4855C61.0139 46.7382 62.2222 47.2613 62.2222 48.3375V70.071C62.2222 74.032 59.2361 77.2457 55.5555 77.2457H6.66667C2.98611 77.2457 0 74.032 0 70.071V17.4563C0 13.4953 2.98611 10.2816 6.66667 10.2816H44.6528C45.6389 10.2816 46.1389 11.5671 45.4444 12.3294L41 17.1125C40.7917 17.3368 40.5139 17.4563 40.2083 17.4563H6.66667V70.071H55.5555V53.1057C55.5555 52.7918 55.6667 52.4929 55.875 52.2687ZM77.625 22.105L41.1528 61.3567L28.5972 62.8514C24.9583 63.2849 21.8611 59.9815 22.2639 56.0354L23.6528 42.523L60.125 3.27131C63.3055 -0.151634 68.4444 -0.151634 71.6111 3.27131L77.6111 9.72856C80.7916 13.1515 80.7917 18.697 77.625 22.105ZM63.9028 26.7237L55.8333 18.0393L30.0278 45.8264L29.0139 55.587L38.0833 54.4958L63.9028 26.7237ZM72.9028 14.8107L66.9028 8.3534C66.3333 7.74056 65.4028 7.74056 64.8472 8.3534L60.5555 12.9721L68.625 21.6565L72.9167 17.0378C73.4722 16.41 73.4722 15.4235 72.9028 14.8107Z" fill="#6F6D6D"/>
</svg>
