<svg width="82" height="78" viewBox="0 0 82 78" fill="none" xmlns="http://www.w3.org/2000/svg">
<path d="M35.8623 77.1718L28.2373 74.5261C27.4373 74.2571 26.9873 73.2556 27.2123 72.299L44.2748 2.0166C44.4998 1.05997 45.3373 0.521869 46.1373 0.790921L53.7623 3.4366C54.5623 3.70565 55.0123 4.70712 54.7873 5.66375L37.7248 75.9461C37.4873 76.9028 36.6623 77.4558 35.8623 77.1718ZM21.6123 60.4009L27.0498 53.4653C27.6248 52.7329 27.5873 51.567 26.9498 50.8944L15.6248 38.9814L26.9498 27.0683C27.5873 26.3957 27.6373 25.2298 27.0498 24.4974L21.6123 17.5618C21.0498 16.8444 20.0998 16.7995 19.4873 17.4871L1.47483 37.666C0.837329 38.3685 0.837329 39.5793 1.47483 40.2818L19.4873 60.4756C20.0998 61.1632 21.0498 61.1333 21.6123 60.4009ZM62.5123 60.4906L80.5248 40.2967C81.1623 39.5942 81.1623 38.3835 80.5248 37.681L62.5123 17.4721C61.9123 16.7995 60.9623 16.8294 60.3873 17.5469L54.9498 24.4825C54.3748 25.2149 54.4123 26.3808 55.0498 27.0534L66.3748 38.9814L55.0498 50.8944C54.4123 51.567 54.3623 52.7329 54.9498 53.4653L60.3873 60.4009C60.9498 61.1333 61.8998 61.1632 62.5123 60.4906Z" fill="#CB8909"/>
</svg>
